<svg xmlns="http://www.w3.org/2000/svg" width="47" height="47" viewBox="0 0 47 47">
  <g fill="none" fill-rule="evenodd" transform="translate(-4 -4)">
    <polygon points="0 55 0 0 55 0 55 55"/>
    <g fill-rule="nonzero" transform="translate(4.477 4.477)">
      <circle cx="23.023" cy="23.023" r="22.917" fill="#37AEE2"/>
      <path fill="#FFF" d="M34.4242985,12.7107558 L30.1320058,34.6259631 C30.1320058,34.6259631 29.9475256,35.6274203 28.7054433,35.6274203 C28.0454433,35.6274203 27.7051308,35.3134631 27.7051308,35.3134631 L18.4078381,27.5985683 L13.8588808,25.3057558 L8.02086105,23.7531506 C8.02086105,23.7531506 6.98159128,23.4529433 6.98159128,22.5935683 C6.98159128,21.8774235 8.05065378,21.5359631 8.05065378,21.5359631 L32.475236,11.8330453 C32.4740913,11.8319006 33.2211735,11.5637756 33.7654433,11.5649167 C34.1000256,11.5649167 34.4815913,11.7081506 34.4815913,12.1378381 C34.4815913,12.4242953 34.4242953,12.7107558 34.4242953,12.7107558 L34.4242985,12.7107558 Z"/>
      <path fill="#B0BEC5" d="M21.8774235,30.4769006 L17.9517985,34.3429433 C17.9517985,34.3429433 17.7810683,34.4747131 17.5530485,34.4804433 C17.473986,34.482736 17.3891933,34.4701308 17.302111,34.4311735 L18.4066933,27.5962788 L21.8774235,30.4769006 Z"/>
      <path fill="#CFD8DC" d="M29.780236,16.3728381 C29.5865913,16.1207558 29.2290913,16.0749203 28.9770058,16.2662756 L13.8565881,25.3149203 C13.8565881,25.3149203 16.2697131,32.0661703 16.6375256,33.2349203 C17.0064828,34.4048151 17.3021078,34.4323151 17.3021078,34.4323151 L18.4066901,27.5974203 L29.6725224,17.1749203 C29.9246047,16.9835651 29.9715849,16.6249203 29.7802297,16.3728381 L29.780236,16.3728381 Z"/>
    </g>
  </g>
</svg>
